<svg width="320" height="39" viewBox="0 0 320 39" fill="none" xmlns="http://www.w3.org/2000/svg">
<path d="M13.8359 23.9766C13.5755 23.1693 13.3151 22.4531 13.0547 21.8281C12.8203 21.2031 12.612 20.6693 12.4297 20.2266C11.4141 20.5651 10.3073 20.7995 9.10938 20.9297C9.10938 22.5964 9.14844 24.0156 9.22656 25.1875C9.2526 25.9167 9.27865 26.5417 9.30469 27.0625C9.35677 27.5573 9.39583 27.987 9.42188 28.3516C9.47396 28.7161 9.52604 29.0417 9.57812 29.3281C9.63021 29.6406 9.70833 29.9401 9.8125 30.2266C9.29167 30.6172 8.78385 30.9036 8.28906 31.0859C7.82031 31.2682 7.40365 31.3984 7.03906 31.4766C6.59635 31.5807 6.20573 31.6068 5.86719 31.5547C5.73698 31.1901 5.61979 30.7995 5.51562 30.3828C5.41146 29.9922 5.33333 29.4453 5.28125 28.7422C5.25521 28.0651 5.24219 27.1927 5.24219 26.125C5.24219 25.0573 5.28125 23.6901 5.35938 22.0234C5.38542 21.8411 5.39844 21.6589 5.39844 21.4766C5.39844 21.2943 5.41146 21.112 5.4375 20.9297C5.20312 20.9036 4.95573 20.8776 4.69531 20.8516C4.46094 20.8255 4.22656 20.7995 3.99219 20.7734C3.83594 20.3568 3.73177 19.9922 3.67969 19.6797C3.6276 19.3411 3.60156 19.0677 3.60156 18.8594C3.60156 18.599 3.6276 18.3906 3.67969 18.2344C4.09635 18.3125 4.51302 18.3516 4.92969 18.3516H5.51562C5.56771 17.2578 5.61979 16.151 5.67188 15.0312C5.72396 13.8854 5.76302 12.7786 5.78906 11.7109C5.84115 10.6172 5.88021 9.58854 5.90625 8.625C5.93229 7.63542 5.95833 6.73698 5.98438 5.92969C5.20312 6.45052 4.52604 7.1276 3.95312 7.96094C3.38021 8.79427 2.98958 9.75781 2.78125 10.8516C2.44271 10.7995 2.15625 10.6432 1.92188 10.3828C1.6875 10.0964 1.49219 9.8099 1.33594 9.52344C1.15365 9.1849 0.997396 8.80729 0.867188 8.39062C0.736979 7.89583 0.736979 7.40104 0.867188 6.90625C0.997396 6.38542 1.19271 5.90365 1.45312 5.46094C1.71354 4.99219 2.01302 4.58854 2.35156 4.25C2.6901 3.88542 3.01562 3.59896 3.32812 3.39062C3.875 3.05208 4.4349 2.7526 5.00781 2.49219C5.60677 2.20573 6.27083 1.97135 7 1.78906C7.28646 1.5026 7.59896 1.24219 7.9375 1.00781C8.30208 0.773438 8.64062 0.630208 8.95312 0.578125C9.39583 0.473958 9.64323 0.747396 9.69531 1.39844C9.92969 1.3724 10.1771 1.35938 10.4375 1.35938C10.6979 1.33333 10.9714 1.32031 11.2578 1.32031C12.2474 1.32031 13.276 1.47656 14.3438 1.78906C15.4115 2.10156 16.388 2.60938 17.2734 3.3125C18.1849 3.98958 18.9271 4.88802 19.5 6.00781C20.0729 7.10156 20.3594 8.44271 20.3594 10.0312C20.3594 11.8281 19.9297 13.4818 19.0703 14.9922C18.237 16.5026 17.0391 17.7526 15.4766 18.7422C15.6589 19.2109 15.8932 19.7969 16.1797 20.5C16.4661 21.2031 16.7526 21.9974 17.0391 22.8828C17.4557 23.9766 17.8984 25.0052 18.3672 25.9688C18.862 26.9062 19.3698 27.7266 19.8906 28.4297C20.4115 29.1328 20.9583 29.6927 21.5312 30.1094C22.1042 30.5521 22.6771 30.8125 23.25 30.8906C22.9115 31.4115 22.5208 31.776 22.0781 31.9844C21.6354 32.1927 21.1927 32.3229 20.75 32.375C20.2552 32.4531 19.7344 32.4531 19.1875 32.375C18.4323 32.2188 17.7812 31.8542 17.2344 31.2812C16.6875 30.7083 16.2057 30.0182 15.7891 29.2109C15.3984 28.4036 15.0339 27.5443 14.6953 26.6328C14.3828 25.6953 14.0964 24.8099 13.8359 23.9766ZM9.30469 7.33594C9.30469 7.90885 9.29167 8.59896 9.26562 9.40625C9.23958 10.2135 9.21354 11.0859 9.1875 12.0234C9.1875 12.9609 9.17448 13.9505 9.14844 14.9922C9.1224 16.0078 9.10938 17.0234 9.10938 18.0391C9.8125 17.9349 10.5807 17.7656 11.4141 17.5312C12.2734 17.2969 13.0677 16.9062 13.7969 16.3594C14.526 15.8125 15.138 15.0833 15.6328 14.1719C16.1276 13.2604 16.375 12.0885 16.375 10.6562C16.375 9.5625 16.1797 8.63802 15.7891 7.88281C15.4245 7.10156 14.9427 6.47656 14.3438 6.00781C13.7448 5.51302 13.0807 5.16146 12.3516 4.95312C11.6484 4.71875 10.9453 4.60156 10.2422 4.60156C10.112 4.60156 9.98177 4.60156 9.85156 4.60156C9.72135 4.60156 9.57812 4.61458 9.42188 4.64062C9.34375 5.47396 9.30469 6.3724 9.30469 7.33594ZM32.8984 21.2812C32.8464 22.2969 32.6641 23.2344 32.3516 24.0938C32.0651 24.9531 31.6615 25.7083 31.1406 26.3594C30.6198 26.9844 29.9948 27.4792 29.2656 27.8438C28.5625 28.2083 27.7812 28.4036 26.9219 28.4297C26.1667 28.4557 25.4505 28.2734 24.7734 27.8828C24.1224 27.4922 23.5495 26.9453 23.0547 26.2422C22.5599 25.5391 22.1823 24.7057 21.9219 23.7422C21.6875 22.7526 21.6224 21.6849 21.7266 20.5391C21.8047 19.2109 22.0521 18.0781 22.4688 17.1406C22.8854 16.1771 23.3281 15.3828 23.7969 14.7578C24.2656 14.1328 24.6953 13.6771 25.0859 13.3906C25.5026 13.0781 25.763 12.8958 25.8672 12.8438C26.0495 12.7656 26.2188 12.7526 26.375 12.8047C26.5312 12.8307 26.7005 12.8698 26.8828 12.9219C26.9349 12.9479 26.987 13.013 27.0391 13.1172C27.1432 13.2995 27.2083 13.638 27.2344 14.1328C27.3646 13.8464 27.5339 13.612 27.7422 13.4297C27.9505 13.2474 28.1589 13.1172 28.3672 13.0391C28.6276 12.9349 28.888 12.8698 29.1484 12.8438C29.3307 12.8177 29.6432 12.9609 30.0859 13.2734C30.5547 13.5859 30.9974 14.0807 31.4141 14.7578C31.8568 15.4349 32.2344 16.3203 32.5469 17.4141C32.8594 18.4818 32.9766 19.7708 32.8984 21.2812ZM30.2422 20.8125C30.2682 20.1875 30.2422 19.5625 30.1641 18.9375C30.112 18.2865 30.0078 17.7005 29.8516 17.1797C29.7214 16.6328 29.5521 16.2031 29.3438 15.8906C29.1354 15.5521 28.9271 15.3828 28.7188 15.3828C28.4844 15.4349 28.224 15.5521 27.9375 15.7344C27.7031 15.8906 27.4427 16.138 27.1562 16.4766C26.8698 16.8151 26.5964 17.2969 26.3359 17.9219C26.3099 17.8438 26.2839 17.7005 26.2578 17.4922C26.2318 17.3099 26.2057 17.0755 26.1797 16.7891C26.1797 16.4766 26.2057 16.0599 26.2578 15.5391C25.8932 15.9818 25.6068 16.5026 25.3984 17.1016C25.2161 17.7005 25.0729 18.2734 24.9688 18.8203C24.8646 19.4714 24.7865 20.1224 24.7344 20.7734C24.7083 21.4766 24.7344 22.1667 24.8125 22.8438C24.9167 23.5208 25.0729 24.1198 25.2812 24.6406C25.5156 25.1615 25.7891 25.5781 26.1016 25.8906C26.4141 26.2031 26.7917 26.3464 27.2344 26.3203C27.6771 26.2943 28.0677 26.112 28.4062 25.7734C28.7448 25.4349 29.0443 25.0052 29.3047 24.4844C29.5651 23.9635 29.7734 23.3776 29.9297 22.7266C30.0859 22.0755 30.1901 21.4375 30.2422 20.8125ZM45.7109 23.0781C45.7109 23.3646 45.6068 23.8073 45.3984 24.4062C45.2161 24.9792 44.9036 25.5651 44.4609 26.1641C44.0182 26.737 43.4453 27.2448 42.7422 27.6875C42.0651 28.1302 41.2318 28.3516 40.2422 28.3516C38.8359 28.3516 37.651 27.974 36.6875 27.2188C35.75 26.4375 35.0859 25.3307 34.6953 23.8984C34.3828 22.7005 34.2917 21.4245 34.4219 20.0703C34.5781 18.6901 34.9557 17.4141 35.5547 16.2422C36.1536 15.0703 36.987 14.0807 38.0547 13.2734C39.1224 12.4401 40.4245 11.9844 41.9609 11.9062C42.7422 11.8802 43.3932 12.0234 43.9141 12.3359C44.4349 12.6484 44.8385 13.0521 45.125 13.5469C45.4115 14.0417 45.5807 14.5885 45.6328 15.1875C45.6849 15.7604 45.6198 16.3073 45.4375 16.8281C45.2812 17.349 45.0208 17.7917 44.6562 18.1562C44.3177 18.4948 43.875 18.6771 43.3281 18.7031C42.7812 18.7552 42.3255 18.6901 41.9609 18.5078C41.6224 18.2995 41.349 18.0521 41.1406 17.7656C40.9583 17.4792 40.8281 17.1797 40.75 16.8672C40.6979 16.5547 40.6979 16.2812 40.75 16.0469C40.8281 15.7083 40.9583 15.3958 41.1406 15.1094C41.2969 14.849 41.5182 14.5885 41.8047 14.3281C42.1172 14.0677 42.5208 13.8594 43.0156 13.7031C42.9375 13.651 42.8594 13.625 42.7812 13.625C42.7031 13.625 42.625 13.612 42.5469 13.5859C42.4427 13.5859 42.3646 13.5729 42.3125 13.5469C41.8958 13.5469 41.4141 13.6901 40.8672 13.9766C40.3464 14.263 39.8385 14.7188 39.3438 15.3438C38.875 15.9688 38.4714 16.776 38.1328 17.7656C37.8203 18.7292 37.6641 19.901 37.6641 21.2812C37.6641 21.8802 37.7292 22.4792 37.8594 23.0781C37.9896 23.651 38.1849 24.1719 38.4453 24.6406C38.7318 25.0833 39.0703 25.4479 39.4609 25.7344C39.8776 25.9948 40.3594 26.125 40.9062 26.125C41.5312 26.125 42.0781 25.9948 42.5469 25.7344C43.0417 25.4479 43.4583 25.1224 43.7969 24.7578C44.1354 24.3932 44.3958 24.0286 44.5781 23.6641C44.7865 23.2995 44.9297 23.026 45.0078 22.8438C45.0859 22.6875 45.2161 22.6094 45.3984 22.6094C45.6068 22.6094 45.7109 22.7656 45.7109 23.0781ZM55.8672 18.6641C56.4141 18.8984 56.9349 19.276 57.4297 19.7969C57.9245 20.2917 58.237 21.0469 58.3672 22.0625C58.4714 22.9479 58.6146 23.7422 58.7969 24.4453C58.9792 25.1484 59.2396 25.7865 59.5781 26.3594C59.9167 26.9062 60.3594 27.401 60.9062 27.8438C61.4792 28.2604 62.2083 28.625 63.0938 28.9375C62.8594 29.1458 62.5729 29.3151 62.2344 29.4453C61.9219 29.5755 61.6224 29.6667 61.3359 29.7188C60.9974 29.8229 60.6458 29.875 60.2812 29.875C59.4219 29.9531 58.7188 29.8359 58.1719 29.5234C57.625 29.237 57.1953 28.8073 56.8828 28.2344C56.5703 27.6615 56.3359 26.9974 56.1797 26.2422C56.0234 25.487 55.9062 24.7057 55.8281 23.8984C55.8021 23.5599 55.763 23.2083 55.7109 22.8438C55.6589 22.4792 55.5677 22.1276 55.4375 21.7891C55.3073 21.4505 55.125 21.138 54.8906 20.8516C54.6823 20.5651 54.4089 20.3438 54.0703 20.1875C53.4974 20.6302 52.9635 21.0208 52.4688 21.3594C52 21.6719 51.5833 21.9323 51.2188 22.1406C51.2448 23.5469 51.3099 24.7057 51.4141 25.6172C51.5443 26.5286 51.7135 27.1406 51.9219 27.4531C51.7396 27.5833 51.5573 27.7005 51.375 27.8047C51.1927 27.8828 51.0365 27.9479 50.9062 28C50.724 28.0781 50.5547 28.1302 50.3984 28.1562C49.8776 28.3125 49.4089 28.2865 48.9922 28.0781C48.6016 27.8958 48.3932 27.388 48.3672 26.5547L48.1328 3.74219C48.1328 3.53385 48.3281 3.32552 48.7188 3.11719C49.1354 2.88281 49.5911 2.70052 50.0859 2.57031C50.5807 2.4401 51.0234 2.375 51.4141 2.375C51.8307 2.375 52.026 2.49219 52 2.72656C51.9219 4.52344 51.8438 6.21615 51.7656 7.80469C51.6875 9.39323 51.6224 10.7995 51.5703 12.0234C51.4922 13.4557 51.4271 14.7578 51.375 15.9297C51.3229 16.6328 51.2839 17.3099 51.2578 17.9609C51.2578 18.612 51.2448 19.237 51.2188 19.8359C51.7135 19.4453 52.2344 19.0156 52.7812 18.5469C53.3281 18.0781 53.849 17.5573 54.3438 16.9844C54.8385 16.4115 55.2552 15.7995 55.5938 15.1484C55.9323 14.4714 56.1276 13.7552 56.1797 13C56.4661 12.7917 56.7526 12.6224 57.0391 12.4922C57.3516 12.3359 57.625 12.2188 57.8594 12.1406C58.1458 12.0365 58.4062 11.9844 58.6406 11.9844C59.2396 11.9583 59.5911 12.0885 59.6953 12.375C59.7734 12.5833 59.7604 12.8958 59.6562 13.3125C59.5781 13.7031 59.3828 14.1849 59.0703 14.7578C58.7839 15.3047 58.3802 15.9167 57.8594 16.5938C57.3385 17.2448 56.6745 17.9349 55.8672 18.6641ZM72.3906 24.25C72.8073 24.25 73.1589 24.3411 73.4453 24.5234C73.7578 24.6797 74.0052 24.888 74.1875 25.1484C74.3958 25.3828 74.5391 25.6562 74.6172 25.9688C74.7214 26.2552 74.7734 26.5286 74.7734 26.7891C74.7734 27.4401 74.6302 28.0521 74.3438 28.625C74.0833 29.1979 73.7578 29.7057 73.3672 30.1484C73.0026 30.5911 72.638 30.9427 72.2734 31.2031C71.9089 31.4635 71.6484 31.5938 71.4922 31.5938C71.4141 31.5938 71.3359 31.5547 71.2578 31.4766C71.2057 31.4245 71.1406 31.3333 71.0625 31.2031C71.0104 31.099 70.9583 30.9427 70.9062 30.7344C71.1667 30.3958 71.4401 30.0312 71.7266 29.6406C72.0391 29.25 72.2214 28.7682 72.2734 28.1953C72.1172 28.2474 71.9349 28.2865 71.7266 28.3125C71.5443 28.3385 71.349 28.3516 71.1406 28.3516C70.6198 28.3516 70.2031 28.2214 69.8906 27.9609C69.6042 27.7005 69.4609 27.388 69.4609 27.0234C69.4609 26.763 69.526 26.4766 69.6562 26.1641C69.7865 25.8255 69.9688 25.526 70.2031 25.2656C70.4635 24.9792 70.776 24.7448 71.1406 24.5625C71.5052 24.3542 71.9219 24.25 72.3906 24.25ZM93.4453 1.32031C94.4349 1.32031 95.4635 1.47656 96.5312 1.78906C97.599 2.10156 98.5755 2.60938 99.4609 3.3125C100.372 3.98958 101.115 4.88802 101.688 6.00781C102.26 7.10156 102.547 8.44271 102.547 10.0312C102.547 11.4635 102.273 12.8568 101.727 14.2109C101.206 15.5651 100.451 16.8021 99.4609 17.9219C98.4974 19.0417 97.3255 20.0052 95.9453 20.8125C94.5651 21.5938 93.0286 22.1276 91.3359 22.4141C91.3359 23.4818 91.375 24.4062 91.4531 25.1875C91.4792 25.9167 91.5052 26.5417 91.5312 27.0625C91.5833 27.5573 91.6224 27.987 91.6484 28.3516C91.7005 28.7161 91.7526 29.0417 91.8047 29.3281C91.8568 29.6406 91.9219 29.9401 92 30.2266C91.4792 30.6172 90.9844 30.9036 90.5156 31.0859C90.0469 31.2682 89.6302 31.3984 89.2656 31.4766C88.849 31.5807 88.4583 31.6068 88.0938 31.5547C87.9635 31.2161 87.8464 30.8385 87.7422 30.4219C87.638 30.0312 87.5599 29.5104 87.5078 28.8594C87.4818 28.2083 87.4688 27.388 87.4688 26.3984C87.4688 25.3828 87.4948 24.0938 87.5469 22.5312C87.3385 22.5052 87.1172 22.4922 86.8828 22.4922C86.6484 22.4661 86.4271 22.4271 86.2188 22.375C86.0365 21.9583 85.9193 21.5938 85.8672 21.2812C85.8151 20.9688 85.7891 20.7083 85.7891 20.5C85.7891 20.2396 85.8151 20.0312 85.8672 19.875C86.0755 19.901 86.2839 19.9271 86.4922 19.9531C86.7005 19.9531 86.8958 19.9531 87.0781 19.9531C87.2865 19.9792 87.4818 19.9922 87.6641 19.9922C87.7161 18.7943 87.7682 17.5573 87.8203 16.2812C87.8984 14.9792 87.9505 13.7161 87.9766 12.4922C88.0286 11.2682 88.0677 10.0964 88.0938 8.97656C88.1458 7.83073 88.1849 6.8151 88.2109 5.92969C87.4297 6.45052 86.7396 7.1276 86.1406 7.96094C85.5677 8.79427 85.1901 9.75781 85.0078 10.8516C84.6693 10.7995 84.3828 10.6432 84.1484 10.3828C83.9141 10.0964 83.7188 9.8099 83.5625 9.52344C83.3802 9.1849 83.224 8.80729 83.0938 8.39062C82.9635 7.89583 82.9635 7.40104 83.0938 6.90625C83.1979 6.38542 83.3802 5.90365 83.6406 5.46094C83.901 4.99219 84.2005 4.58854 84.5391 4.25C84.8776 3.88542 85.2031 3.59896 85.5156 3.39062C86.0885 3.05208 86.6615 2.7526 87.2344 2.49219C87.8073 2.20573 88.4583 1.97135 89.1875 1.78906C89.474 1.5026 89.7865 1.24219 90.125 1.00781C90.4896 0.773438 90.8411 0.630208 91.1797 0.578125C91.5964 0.473958 91.8307 0.747396 91.8828 1.39844C92.1172 1.3724 92.3646 1.35938 92.625 1.35938C92.8854 1.33333 93.1589 1.32031 93.4453 1.32031ZM91.3359 19.4844C92.0391 19.276 92.8073 18.9635 93.6406 18.5469C94.474 18.1302 95.2552 17.5833 95.9844 16.9062C96.7135 16.2031 97.3255 15.3438 97.8203 14.3281C98.3151 13.3125 98.5625 12.0885 98.5625 10.6562C98.5625 9.5625 98.3672 8.63802 97.9766 7.88281C97.612 7.10156 97.1302 6.47656 96.5312 6.00781C95.9323 5.51302 95.2682 5.16146 94.5391 4.95312C93.8359 4.71875 93.1328 4.60156 92.4297 4.60156C92.2995 4.60156 92.1693 4.60156 92.0391 4.60156C91.9089 4.60156 91.7786 4.61458 91.6484 4.64062C91.5703 5.47396 91.5312 6.3724 91.5312 7.33594C91.5312 7.98698 91.5182 8.78125 91.4922 9.71875C91.4661 10.6302 91.4401 11.6198 91.4141 12.6875C91.388 13.7552 91.362 14.875 91.3359 16.0469C91.3359 17.2188 91.3359 18.3646 91.3359 19.4844ZM114.5 26.0078C114.552 26.1901 114.63 26.3594 114.734 26.5156C114.812 26.6458 114.917 26.776 115.047 26.9062C115.203 27.0104 115.385 27.0755 115.594 27.1016C115.411 27.4661 115.229 27.7135 115.047 27.8438C114.943 27.9219 114.852 27.974 114.773 28C114.539 28.0781 114.188 28.1172 113.719 28.1172C113.25 28.1172 112.794 27.974 112.352 27.6875C112.195 27.5573 112.052 27.362 111.922 27.1016C111.792 26.8932 111.674 26.6068 111.57 26.2422C111.492 25.8516 111.427 25.3568 111.375 24.7578C111.01 25.5391 110.594 26.1641 110.125 26.6328C109.682 27.0755 109.24 27.401 108.797 27.6094C108.302 27.8958 107.794 28.0651 107.273 28.1172C106.622 28.1693 105.997 28.0651 105.398 27.8047C104.826 27.5182 104.331 27.1016 103.914 26.5547C103.523 25.9818 103.224 25.2917 103.016 24.4844C102.807 23.6771 102.742 22.7656 102.82 21.75C102.898 20.6823 103.107 19.7318 103.445 18.8984C103.784 18.0651 104.188 17.3229 104.656 16.6719C105.125 16.0208 105.62 15.474 106.141 15.0312C106.661 14.5625 107.156 14.1849 107.625 13.8984C108.12 13.5859 108.536 13.3646 108.875 13.2344C109.24 13.0781 109.474 12.987 109.578 12.9609C109.865 12.8828 110.112 12.8568 110.32 12.8828C110.529 12.9089 110.711 13.026 110.867 13.2344C110.919 13.3125 110.984 13.4036 111.062 13.5078C111.115 13.612 111.18 13.7552 111.258 13.9375C111.336 14.0938 111.401 14.276 111.453 14.4844C110.828 14.7708 110.242 15.0964 109.695 15.4609C109.148 15.7995 108.641 16.2161 108.172 16.7109C107.729 17.2057 107.339 17.8047 107 18.5078C106.661 19.2109 106.401 20.0703 106.219 21.0859C105.958 22.362 106.023 23.3906 106.414 24.1719C106.831 24.9531 107.391 25.2786 108.094 25.1484C108.51 25.0182 108.914 24.7708 109.305 24.4062C109.643 24.0938 109.995 23.625 110.359 23C110.75 22.375 111.115 21.5156 111.453 20.4219C111.583 18.8594 111.688 17.6354 111.766 16.75C111.87 15.8385 111.961 15.1484 112.039 14.6797C112.143 14.1328 112.221 13.7682 112.273 13.5859C112.352 13.4557 112.508 13.3385 112.742 13.2344C112.977 13.1042 113.237 13 113.523 12.9219C113.81 12.8438 114.07 12.8047 114.305 12.8047C114.539 12.7786 114.695 12.7786 114.773 12.8047C114.826 12.8307 114.852 13.1562 114.852 13.7812C114.852 14.3802 114.826 15.1484 114.773 16.0859C114.747 16.9974 114.708 18 114.656 19.0938C114.604 20.1615 114.552 21.1771 114.5 22.1406C114.474 23.1042 114.448 23.9505 114.422 24.6797C114.422 25.3828 114.448 25.8255 114.5 26.0078ZM125.477 12.5312C126.206 12.5312 126.883 12.7396 127.508 13.1562C128.133 13.5729 128.667 14.1198 129.109 14.7969C129.552 15.474 129.904 16.2552 130.164 17.1406C130.424 18 130.555 18.8984 130.555 19.8359C130.555 20.7734 130.451 21.763 130.242 22.8047C130.034 23.8464 129.708 24.8099 129.266 25.6953C128.823 26.5807 128.25 27.3229 127.547 27.9219C126.844 28.4948 125.984 28.7812 124.969 28.7812C124.161 28.7812 123.393 28.4948 122.664 27.9219C121.961 27.3229 121.414 26.5807 121.023 25.6953C120.971 26.6068 120.854 27.5312 120.672 28.4688C120.49 29.4323 120.398 30.5781 120.398 31.9062C120.398 32.2969 120.411 32.7396 120.438 33.2344C120.464 33.7292 120.503 34.224 120.555 34.7188C120.607 35.2135 120.685 35.6693 120.789 36.0859C120.893 36.5026 121.01 36.8281 121.141 37.0625C120.698 37.3229 120.294 37.5182 119.93 37.6484C119.591 37.7786 119.292 37.8698 119.031 37.9219C118.745 38 118.471 38.0391 118.211 38.0391C117.872 38.0391 117.651 37.8958 117.547 37.6094C117.443 37.3229 117.391 36.8151 117.391 36.0859C117.391 35.6172 117.404 34.9401 117.43 34.0547C117.482 33.1953 117.534 32.2057 117.586 31.0859C117.664 29.9661 117.729 28.7943 117.781 27.5703C117.859 26.3203 117.924 25.0964 117.977 23.8984C118.055 22.7005 118.107 21.5938 118.133 20.5781C118.185 19.5365 118.211 18.6641 118.211 17.9609C118.211 17.1016 118.198 16.4375 118.172 15.9688C118.146 15.474 118.107 15.1094 118.055 14.875C118.029 14.6146 117.99 14.4323 117.938 14.3281C117.885 14.224 117.82 14.1068 117.742 13.9766C117.977 13.7943 118.25 13.638 118.562 13.5078C118.901 13.3516 119.227 13.2474 119.539 13.1953C119.878 13.1172 120.177 13.0911 120.438 13.1172C120.724 13.1432 120.945 13.2083 121.102 13.3125C121.232 13.4427 121.323 13.638 121.375 13.8984C121.453 14.1589 121.518 14.5495 121.57 15.0703C122.065 14.3932 122.625 13.8073 123.25 13.3125C123.901 12.7917 124.643 12.5312 125.477 12.5312ZM123.953 26.4766C124.422 26.4766 124.865 26.2552 125.281 25.8125C125.724 25.3698 126.102 24.8099 126.414 24.1328C126.753 23.4297 127.013 22.6615 127.195 21.8281C127.404 20.9688 127.508 20.1224 127.508 19.2891C127.508 18.3776 127.417 17.6354 127.234 17.0625C127.078 16.4635 126.87 15.9948 126.609 15.6562C126.375 15.2917 126.115 15.0443 125.828 14.9141C125.568 14.7578 125.333 14.6797 125.125 14.6797C124.63 14.6797 124.161 14.888 123.719 15.3047C123.276 15.6953 122.885 16.2161 122.547 16.8672C122.208 17.4922 121.935 18.1953 121.727 18.9766C121.544 19.7578 121.453 20.5391 121.453 21.3203C121.453 22.0495 121.518 22.7266 121.648 23.3516C121.805 23.9766 122 24.5234 122.234 24.9922C122.469 25.4609 122.729 25.8255 123.016 26.0859C123.328 26.3464 123.641 26.4766 123.953 26.4766ZM138.055 28.4297C136.232 28.4297 134.826 27.8177 133.836 26.5938C132.846 25.3698 132.352 23.7682 132.352 21.7891C132.352 20.4089 132.547 19.1198 132.938 17.9219C133.354 16.6979 133.901 15.6432 134.578 14.7578C135.255 13.8724 136.036 13.1823 136.922 12.6875C137.833 12.1667 138.784 11.9062 139.773 11.9062C140.737 11.9062 141.557 12.2578 142.234 12.9609C142.911 13.638 143.25 14.6146 143.25 15.8906C143.25 16.724 143.068 17.5573 142.703 18.3906C142.339 19.1979 141.857 19.9271 141.258 20.5781C140.685 21.2031 140.047 21.7109 139.344 22.1016C138.641 22.4922 137.964 22.6875 137.312 22.6875C136.896 22.6875 136.544 22.6354 136.258 22.5312C135.971 22.4271 135.711 22.2708 135.477 22.0625C135.555 23.5469 135.88 24.5885 136.453 25.1875C137.026 25.7604 137.768 26.0469 138.68 26.0469C139.305 26.0469 139.852 25.9167 140.32 25.6562C140.815 25.3958 141.232 25.0964 141.57 24.7578C141.909 24.4193 142.182 24.0807 142.391 23.7422C142.599 23.3776 142.742 23.1042 142.82 22.9219C142.898 22.7656 143.029 22.6875 143.211 22.6875C143.419 22.6875 143.523 22.8438 143.523 23.1562C143.523 23.4427 143.419 23.8854 143.211 24.4844C143.029 25.0573 142.716 25.6432 142.273 26.2422C141.831 26.8151 141.258 27.3229 140.555 27.7656C139.878 28.2083 139.044 28.4297 138.055 28.4297ZM139.852 13.5859C139.695 13.5859 139.396 13.7552 138.953 14.0938C138.536 14.4062 138.081 14.875 137.586 15.5C137.117 16.125 136.674 16.8802 136.258 17.7656C135.867 18.625 135.62 19.6016 135.516 20.6953C137.078 20.3307 138.315 19.7578 139.227 18.9766C140.138 18.1953 140.594 17.0495 140.594 15.5391C140.594 14.7839 140.503 14.276 140.32 14.0156C140.138 13.7292 139.982 13.5859 139.852 13.5859ZM156.375 16.0078C156.375 16.3724 156.271 16.75 156.062 17.1406C155.88 17.5052 155.646 17.8568 155.359 18.1953C155.073 18.5339 154.747 18.8333 154.383 19.0938C154.044 19.3281 153.719 19.4714 153.406 19.5234C153.615 18.7161 153.68 18.0911 153.602 17.6484C153.523 17.2057 153.393 16.8802 153.211 16.6719C153.003 16.4375 152.742 16.3073 152.43 16.2812C151.961 16.2812 151.505 16.5547 151.062 17.1016C150.646 17.6224 150.281 18.2734 149.969 19.0547C149.656 19.8099 149.409 20.6302 149.227 21.5156C149.044 22.375 148.953 23.1562 148.953 23.8594C148.927 24.3542 148.94 24.8359 148.992 25.3047C149.018 25.6953 149.057 26.099 149.109 26.5156C149.188 26.9323 149.292 27.2578 149.422 27.4922C149.266 27.6224 149.005 27.7786 148.641 27.9609C148.302 28.1432 147.938 28.2604 147.547 28.3125C147.182 28.3646 146.844 28.2995 146.531 28.1172C146.245 27.9349 146.089 27.5443 146.062 26.9453C146.01 26.3724 145.971 25.7344 145.945 25.0312C145.945 24.3021 145.945 23.5859 145.945 22.8828C145.971 22.1536 145.997 21.4375 146.023 20.7344C146.049 20.0312 146.089 19.3802 146.141 18.7812C146.193 17.6354 146.219 16.75 146.219 16.125C146.219 15.5 146.206 14.901 146.18 14.3281C146.18 14.224 146.349 14.0807 146.688 13.8984C147.052 13.6901 147.443 13.5078 147.859 13.3516C148.302 13.1953 148.706 13.1042 149.07 13.0781C149.435 13.0521 149.617 13.1302 149.617 13.3125C149.617 13.599 149.578 14.1719 149.5 15.0312C149.448 15.8646 149.37 16.737 149.266 17.6484C149.448 17.1536 149.682 16.6198 149.969 16.0469C150.281 15.474 150.633 14.9401 151.023 14.4453C151.414 13.9505 151.857 13.5469 152.352 13.2344C152.846 12.8958 153.393 12.7266 153.992 12.7266C154.461 12.7266 154.839 12.8698 155.125 13.1562C155.438 13.4427 155.685 13.7682 155.867 14.1328C156.049 14.4974 156.18 14.862 156.258 15.2266C156.336 15.5911 156.375 15.8516 156.375 16.0078ZM177.312 26.0078C177.365 26.1901 177.443 26.3594 177.547 26.5156C177.625 26.6458 177.729 26.776 177.859 26.9062C178.016 27.0104 178.198 27.0755 178.406 27.1016C178.224 27.4661 178.042 27.7135 177.859 27.8438C177.755 27.9219 177.664 27.974 177.586 28C177.352 28.0781 177 28.1172 176.531 28.1172C176.062 28.1172 175.607 27.974 175.164 27.6875C175.008 27.5573 174.865 27.362 174.734 27.1016C174.604 26.8932 174.487 26.6068 174.383 26.2422C174.305 25.8516 174.24 25.3568 174.188 24.7578C173.823 25.5391 173.406 26.1641 172.938 26.6328C172.495 27.0755 172.052 27.401 171.609 27.6094C171.115 27.8958 170.607 28.0651 170.086 28.1172C169.435 28.1693 168.81 28.0651 168.211 27.8047C167.638 27.5182 167.143 27.1016 166.727 26.5547C166.336 25.9818 166.036 25.2917 165.828 24.4844C165.62 23.6771 165.555 22.7656 165.633 21.75C165.711 20.6823 165.919 19.7318 166.258 18.8984C166.596 18.0651 167 17.3229 167.469 16.6719C167.938 16.0208 168.432 15.474 168.953 15.0312C169.474 14.5625 169.969 14.1849 170.438 13.8984C170.932 13.5859 171.349 13.3646 171.688 13.2344C172.052 13.0781 172.286 12.987 172.391 12.9609C172.677 12.8828 172.924 12.8568 173.133 12.8828C173.341 12.9089 173.523 13.026 173.68 13.2344C173.732 13.3125 173.797 13.4036 173.875 13.5078C173.927 13.612 173.992 13.7552 174.07 13.9375C174.148 14.0938 174.214 14.276 174.266 14.4844C173.641 14.7708 173.055 15.0964 172.508 15.4609C171.961 15.7995 171.453 16.2161 170.984 16.7109C170.542 17.2057 170.151 17.8047 169.812 18.5078C169.474 19.2109 169.214 20.0703 169.031 21.0859C168.771 22.362 168.836 23.3906 169.227 24.1719C169.643 24.9531 170.203 25.2786 170.906 25.1484C171.323 25.0182 171.727 24.7708 172.117 24.4062C172.456 24.0938 172.807 23.625 173.172 23C173.562 22.375 173.927 21.5156 174.266 20.4219C174.396 18.8594 174.5 17.6354 174.578 16.75C174.682 15.8385 174.773 15.1484 174.852 14.6797C174.956 14.1328 175.034 13.7682 175.086 13.5859C175.164 13.4557 175.32 13.3385 175.555 13.2344C175.789 13.1042 176.049 13 176.336 12.9219C176.622 12.8438 176.883 12.8047 177.117 12.8047C177.352 12.7786 177.508 12.7786 177.586 12.8047C177.638 12.8307 177.664 13.1562 177.664 13.7812C177.664 14.3802 177.638 15.1484 177.586 16.0859C177.56 16.9974 177.521 18 177.469 19.0938C177.417 20.1615 177.365 21.1771 177.312 22.1406C177.286 23.1042 177.26 23.9505 177.234 24.6797C177.234 25.3828 177.26 25.8255 177.312 26.0078ZM184.734 26.9453C184.708 27.1016 184.565 27.2708 184.305 27.4531C184.07 27.6094 183.784 27.7526 183.445 27.8828C183.133 28.013 182.833 28.0911 182.547 28.1172C182.26 28.1693 182.065 28.1432 181.961 28.0391C181.857 27.9349 181.688 27.7396 181.453 27.4531C181.219 27.1667 181.076 26.6979 181.023 26.0469C180.971 25.3698 180.945 24.5234 180.945 23.5078C180.945 22.4661 180.932 21.3203 180.906 20.0703V18.5078C180.906 18.0391 180.893 17.4922 180.867 16.8672C180.867 16.2422 180.854 15.5911 180.828 14.9141C181.062 14.7839 181.297 14.6667 181.531 14.5625C181.792 14.4323 182.026 14.3281 182.234 14.25C182.469 14.1458 182.69 14.0677 182.898 14.0156C183.445 13.8594 183.862 13.7682 184.148 13.7422C184.435 13.7161 184.604 13.8073 184.656 14.0156C184.682 14.1719 184.669 14.5495 184.617 15.1484C184.565 15.6693 184.5 16.4635 184.422 17.5312C184.344 18.5729 184.214 20.0312 184.031 21.9062C184.37 21.0729 184.643 20.3568 184.852 19.7578C185.086 19.1589 185.281 18.6771 185.438 18.3125C185.594 17.8698 185.737 17.5182 185.867 17.2578C185.997 16.9193 186.167 16.5417 186.375 16.125C186.583 15.7083 186.792 15.3177 187 14.9531C187.234 14.5885 187.443 14.263 187.625 13.9766C187.833 13.6901 187.99 13.5208 188.094 13.4688C188.172 13.4167 188.406 13.4167 188.797 13.4688C189.188 13.5208 189.604 13.651 190.047 13.8594C190.49 14.0417 190.919 14.3151 191.336 14.6797C191.753 15.0182 192.026 15.4349 192.156 15.9297C192.312 16.5026 192.365 17.2578 192.312 18.1953C192.286 19.1328 192.221 20.0964 192.117 21.0859C192.039 22.0755 191.974 23.013 191.922 23.8984C191.87 24.7839 191.922 25.4609 192.078 25.9297C192.13 26.1901 192.208 26.4245 192.312 26.6328C192.365 26.8411 192.43 27.0365 192.508 27.2188C192.612 27.375 192.716 27.4922 192.82 27.5703C192.195 27.8568 191.688 28.0651 191.297 28.1953C190.906 28.3255 190.607 28.4167 190.398 28.4688C190.138 28.5469 189.956 28.5729 189.852 28.5469C189.617 28.4688 189.409 28.2734 189.227 27.9609C189.07 27.6484 188.927 27.1536 188.797 26.4766C188.745 26.2682 188.719 25.9297 188.719 25.4609C188.745 24.9661 188.784 24.4193 188.836 23.8203C188.888 23.1953 188.94 22.5573 188.992 21.9062C189.07 21.2292 189.122 20.6042 189.148 20.0312C189.201 19.4323 189.24 18.9245 189.266 18.5078C189.292 18.0651 189.292 17.7656 189.266 17.6094C189.135 17.1406 188.953 16.8151 188.719 16.6328C188.484 16.4245 188.302 16.3984 188.172 16.5547C187.833 16.9453 187.469 17.5833 187.078 18.4688C186.714 19.3281 186.362 20.2786 186.023 21.3203C185.685 22.3359 185.398 23.3516 185.164 24.3672C184.93 25.3828 184.786 26.2422 184.734 26.9453ZM207.781 3.19531C207.781 3.48177 207.755 4.04167 207.703 4.875C207.651 5.70833 207.586 6.71094 207.508 7.88281C207.43 9.05469 207.352 10.3438 207.273 11.75C207.195 13.1562 207.13 14.5885 207.078 16.0469C207.026 17.5052 206.974 18.8724 206.922 20.1484C206.896 21.3984 206.883 22.5182 206.883 23.5078C206.909 24.4974 206.961 25.3307 207.039 26.0078C207.117 26.6589 207.234 27.1016 207.391 27.3359L205.633 28C205.503 28.0521 205.346 28.0781 205.164 28.0781C204.982 28.0781 204.786 28.026 204.578 27.9219C204.396 27.8177 204.24 27.6354 204.109 27.375C203.979 27.1146 203.914 26.75 203.914 26.2812C203.914 26.099 203.914 25.8776 203.914 25.6172C203.94 25.3307 203.953 25.0052 203.953 24.6406C203.641 25.1615 203.302 25.6693 202.938 26.1641C202.573 26.6589 202.169 27.0885 201.727 27.4531C201.31 27.8177 200.854 28.1042 200.359 28.3125C199.865 28.5469 199.344 28.6641 198.797 28.6641C198.276 28.6641 197.768 28.5469 197.273 28.3125C196.779 28.1042 196.336 27.7786 195.945 27.3359C195.555 26.8932 195.229 26.3203 194.969 25.6172C194.734 24.9141 194.617 24.0677 194.617 23.0781C194.617 21.2812 194.826 19.7188 195.242 18.3906C195.659 17.0365 196.18 15.9167 196.805 15.0312C197.456 14.1198 198.146 13.4427 198.875 13C199.63 12.5312 200.32 12.2969 200.945 12.2969C201.909 12.2969 202.651 12.5573 203.172 13.0781C203.693 13.5729 204.07 14.0938 204.305 14.6406C204.331 13.8854 204.344 13.1823 204.344 12.5312C204.37 11.8542 204.383 11.2812 204.383 10.8125C204.383 8.88542 204.344 7.16667 204.266 5.65625C204.188 4.14583 203.992 3 203.68 2.21875C204.044 2.01042 204.37 1.85417 204.656 1.75C204.969 1.64583 205.242 1.56771 205.477 1.51562C205.763 1.4375 206.01 1.39844 206.219 1.39844C206.792 1.39844 207.195 1.56771 207.43 1.90625C207.664 2.21875 207.781 2.64844 207.781 3.19531ZM204.07 21.3203C204.122 20.6432 204.148 19.9401 204.148 19.2109C204.174 18.4557 204.201 17.7005 204.227 16.9453C204.044 17.2318 203.823 17.4792 203.562 17.6875C203.328 17.8958 203.068 17.9479 202.781 17.8438C202.885 17.0625 202.872 16.4635 202.742 16.0469C202.638 15.6302 202.482 15.3177 202.273 15.1094C202.039 14.875 201.766 14.7448 201.453 14.7188C200.984 14.7188 200.516 14.9792 200.047 15.5C199.604 16.0208 199.201 16.6719 198.836 17.4531C198.497 18.2083 198.224 19.0286 198.016 19.9141C197.807 20.7734 197.703 21.5677 197.703 22.2969C197.703 23.7552 197.898 24.7708 198.289 25.3438C198.706 25.9167 199.148 26.2031 199.617 26.2031C200.008 26.2031 200.411 26.0469 200.828 25.7344C201.271 25.4219 201.688 25.0182 202.078 24.5234C202.495 24.0286 202.872 23.5078 203.211 22.9609C203.576 22.388 203.862 21.8411 204.07 21.3203ZM223.758 20.9297C223.315 21.2943 223.068 21.9453 223.016 22.8828C222.99 23.7943 223.146 24.7318 223.484 25.6953C223.849 26.6328 224.396 27.4661 225.125 28.1953C225.854 28.9245 226.766 29.2891 227.859 29.2891C228.562 29.2891 229.161 29.1198 229.656 28.7812C230.177 28.4427 230.594 28.026 230.906 27.5312C231.245 27.0104 231.492 26.4375 231.648 25.8125C231.805 25.1875 231.883 24.5755 231.883 23.9766C231.883 23.1172 231.714 22.401 231.375 21.8281C231.062 21.2552 230.633 20.7604 230.086 20.3438C229.565 19.901 228.953 19.5365 228.25 19.25C227.573 18.9375 226.883 18.625 226.18 18.3125C225.529 18.0521 224.747 17.7266 223.836 17.3359C222.924 16.9193 222.052 16.3854 221.219 15.7344C220.385 15.0573 219.669 14.237 219.07 13.2734C218.497 12.2839 218.211 11.0729 218.211 9.64062C218.211 8.70312 218.458 7.7526 218.953 6.78906C219.448 5.82552 220.151 4.95312 221.062 4.17188C221.974 3.36458 223.068 2.71354 224.344 2.21875C225.646 1.72396 227.104 1.47656 228.719 1.47656C230.307 1.47656 231.596 1.61979 232.586 1.90625C233.576 2.19271 234.344 2.57031 234.891 3.03906C235.438 3.48177 235.802 3.97656 235.984 4.52344C236.193 5.04427 236.297 5.53906 236.297 6.00781C236.297 6.47656 236.154 6.95833 235.867 7.45312C235.581 7.92188 235.242 8.36458 234.852 8.78125C234.461 9.17188 234.057 9.52344 233.641 9.83594C233.224 10.1224 232.885 10.3177 232.625 10.4219C232.755 10.0833 232.885 9.61458 233.016 9.01562C233.146 8.41667 233.107 7.81771 232.898 7.21875C232.716 6.61979 232.26 6.09896 231.531 5.65625C230.828 5.21354 229.682 4.99219 228.094 4.99219C227.182 4.99219 226.297 5.13542 225.438 5.42188C224.578 5.70833 223.81 6.08594 223.133 6.55469C222.482 6.9974 221.961 7.50521 221.57 8.07812C221.18 8.65104 220.984 9.23698 220.984 9.83594C220.984 10.4089 221.18 10.9427 221.57 11.4375C221.987 11.9062 222.534 12.362 223.211 12.8047C223.914 13.2214 224.708 13.638 225.594 14.0547C226.505 14.4714 227.456 14.888 228.445 15.3047C229.409 15.7214 230.359 16.1771 231.297 16.6719C232.234 17.1406 233.068 17.6875 233.797 18.3125C234.552 18.9375 235.151 19.6406 235.594 20.4219C236.036 21.2031 236.258 22.1016 236.258 23.1172C236.258 24.2109 236.049 25.2656 235.633 26.2812C235.242 27.2708 234.669 28.1432 233.914 28.8984C233.185 29.6536 232.286 30.2526 231.219 30.6953C230.151 31.1641 228.94 31.3984 227.586 31.3984C226.388 31.3984 225.255 31.2031 224.188 30.8125C223.12 30.4219 222.182 29.9141 221.375 29.2891C220.594 28.6641 219.969 27.974 219.5 27.2188C219.031 26.4635 218.797 25.7214 218.797 24.9922C218.797 24.2109 218.966 23.5469 219.305 23C219.669 22.4531 220.112 22.0234 220.633 21.7109C221.154 21.3724 221.688 21.138 222.234 21.0078C222.807 20.8776 223.315 20.8516 223.758 20.9297ZM249.461 23.0781C249.461 23.3646 249.357 23.8073 249.148 24.4062C248.966 24.9792 248.654 25.5651 248.211 26.1641C247.768 26.737 247.195 27.2448 246.492 27.6875C245.815 28.1302 244.982 28.3516 243.992 28.3516C242.586 28.3516 241.401 27.974 240.438 27.2188C239.5 26.4375 238.836 25.3307 238.445 23.8984C238.133 22.7005 238.042 21.4245 238.172 20.0703C238.328 18.6901 238.706 17.4141 239.305 16.2422C239.904 15.0703 240.737 14.0807 241.805 13.2734C242.872 12.4401 244.174 11.9844 245.711 11.9062C246.492 11.8802 247.143 12.0234 247.664 12.3359C248.185 12.6484 248.589 13.0521 248.875 13.5469C249.161 14.0417 249.331 14.5885 249.383 15.1875C249.435 15.7604 249.37 16.3073 249.188 16.8281C249.031 17.349 248.771 17.7917 248.406 18.1562C248.068 18.4948 247.625 18.6771 247.078 18.7031C246.531 18.7552 246.076 18.6901 245.711 18.5078C245.372 18.2995 245.099 18.0521 244.891 17.7656C244.708 17.4792 244.578 17.1797 244.5 16.8672C244.448 16.5547 244.448 16.2812 244.5 16.0469C244.578 15.7083 244.708 15.3958 244.891 15.1094C245.047 14.849 245.268 14.5885 245.555 14.3281C245.867 14.0677 246.271 13.8594 246.766 13.7031C246.688 13.651 246.609 13.625 246.531 13.625C246.453 13.625 246.375 13.612 246.297 13.5859C246.193 13.5859 246.115 13.5729 246.062 13.5469C245.646 13.5469 245.164 13.6901 244.617 13.9766C244.096 14.263 243.589 14.7188 243.094 15.3438C242.625 15.9688 242.221 16.776 241.883 17.7656C241.57 18.7292 241.414 19.901 241.414 21.2812C241.414 21.8802 241.479 22.4792 241.609 23.0781C241.74 23.651 241.935 24.1719 242.195 24.6406C242.482 25.0833 242.82 25.4479 243.211 25.7344C243.628 25.9948 244.109 26.125 244.656 26.125C245.281 26.125 245.828 25.9948 246.297 25.7344C246.792 25.4479 247.208 25.1224 247.547 24.7578C247.885 24.3932 248.146 24.0286 248.328 23.6641C248.536 23.2995 248.68 23.026 248.758 22.8438C248.836 22.6875 248.966 22.6094 249.148 22.6094C249.357 22.6094 249.461 22.7656 249.461 23.0781ZM251.961 14.1719C251.961 14.0156 252.169 13.8464 252.586 13.6641C253.003 13.4818 253.458 13.3385 253.953 13.2344C254.474 13.1042 254.943 13.0391 255.359 13.0391C255.802 13.013 256.023 13.1042 256.023 13.3125C256.023 13.7031 255.997 14.263 255.945 14.9922C255.893 15.6953 255.828 16.4505 255.75 17.2578C255.672 18.0391 255.594 18.8333 255.516 19.6406C255.438 20.4219 255.385 21.0859 255.359 21.6328C255.307 22.2057 255.255 22.8307 255.203 23.5078C255.151 24.0807 255.112 24.7188 255.086 25.4219C255.06 26.125 255.06 26.8411 255.086 27.5703C255.086 27.7005 254.956 27.8307 254.695 27.9609C254.435 28.0911 254.148 28.1823 253.836 28.2344C253.523 28.3125 253.224 28.3516 252.938 28.3516C252.651 28.3516 252.495 28.2995 252.469 28.1953C252.417 28.0911 252.365 27.9089 252.312 27.6484C252.26 27.388 252.208 27.0234 252.156 26.5547C252.104 26.0599 252.065 25.4349 252.039 24.6797C252.013 23.8984 252.026 22.9609 252.078 21.8672C252.182 19.7057 252.195 18.0391 252.117 16.8672C252.039 15.6693 251.987 14.7708 251.961 14.1719ZM254.695 6.39844C255.216 6.39844 255.711 6.55469 256.18 6.86719C256.648 7.17969 256.883 7.59635 256.883 8.11719C256.883 8.50781 256.779 8.88542 256.57 9.25C256.388 9.61458 256.154 9.9401 255.867 10.2266C255.581 10.513 255.255 10.7474 254.891 10.9297C254.526 11.0859 254.188 11.1641 253.875 11.1641C253.458 11.1641 253.12 11.099 252.859 10.9688C252.599 10.8125 252.391 10.6432 252.234 10.4609C252.104 10.2526 252.013 10.0312 251.961 9.79688C251.909 9.5625 251.883 9.34115 251.883 9.13281C251.883 8.8724 251.922 8.58594 252 8.27344C252.078 7.9349 252.221 7.63542 252.43 7.375C252.638 7.08854 252.924 6.85417 253.289 6.67188C253.654 6.48958 254.122 6.39844 254.695 6.39844ZM253.719 10.0312C253.875 10.0312 254.044 9.97917 254.227 9.875C254.435 9.74479 254.617 9.60156 254.773 9.44531C254.956 9.28906 255.099 9.11979 255.203 8.9375C255.333 8.75521 255.398 8.59896 255.398 8.46875C255.398 8.26042 255.294 8.15625 255.086 8.15625C254.956 8.15625 254.786 8.20833 254.578 8.3125C254.396 8.41667 254.214 8.54688 254.031 8.70312C253.849 8.83333 253.693 8.98958 253.562 9.17188C253.458 9.32812 253.406 9.48438 253.406 9.64062C253.406 9.90104 253.51 10.0312 253.719 10.0312ZM264.891 20.5781C265.464 20.7865 266.01 20.9818 266.531 21.1641C267.052 21.3464 267.508 21.5677 267.898 21.8281C268.289 22.0885 268.602 22.401 268.836 22.7656C269.07 23.1042 269.188 23.5339 269.188 24.0547C269.188 24.6797 269.044 25.2656 268.758 25.8125C268.497 26.3594 268.107 26.8411 267.586 27.2578C267.065 27.6745 266.427 28 265.672 28.2344C264.943 28.4948 264.122 28.625 263.211 28.625C262.195 28.625 261.375 28.5208 260.75 28.3125C260.125 28.1302 259.643 27.9089 259.305 27.6484C258.966 27.388 258.745 27.1276 258.641 26.8672C258.536 26.6068 258.484 26.3984 258.484 26.2422C258.484 25.9297 258.549 25.5911 258.68 25.2266C258.81 24.8359 259.057 24.4193 259.422 23.9766C259.578 23.7943 259.747 23.625 259.93 23.4688C260.294 23.1562 260.659 22.9609 261.023 22.8828C260.971 23.4818 261.036 23.9766 261.219 24.3672C261.427 24.7318 261.688 25.0182 262 25.2266C262.339 25.4349 262.703 25.5781 263.094 25.6562C263.51 25.7344 263.901 25.7734 264.266 25.7734C264.63 25.7734 264.995 25.7214 265.359 25.6172C265.75 25.513 266.102 25.3828 266.414 25.2266C266.727 25.0443 266.974 24.849 267.156 24.6406C267.365 24.4062 267.469 24.1589 267.469 23.8984C267.469 23.612 267.352 23.3776 267.117 23.1953C266.883 23.013 266.583 22.8698 266.219 22.7656C265.88 22.6354 265.503 22.5443 265.086 22.4922C264.695 22.4141 264.318 22.3359 263.953 22.2578C263.589 22.1797 263.094 22.0755 262.469 21.9453C261.87 21.7891 261.271 21.5547 260.672 21.2422C260.099 20.9297 259.591 20.513 259.148 19.9922C258.732 19.4714 258.523 18.7812 258.523 17.9219C258.523 16.9323 258.771 16.0729 259.266 15.3438C259.786 14.5885 260.411 13.9635 261.141 13.4688C261.896 12.9479 262.69 12.5573 263.523 12.2969C264.357 12.0365 265.099 11.9062 265.75 11.9062C266.089 11.9062 266.453 11.9583 266.844 12.0625C267.234 12.1406 267.599 12.2969 267.938 12.5312C268.276 12.7396 268.549 13.026 268.758 13.3906C268.992 13.7552 269.109 14.224 269.109 14.7969C269.109 15.3698 269.057 15.8385 268.953 16.2031C268.875 16.5417 268.745 16.8151 268.562 17.0234C268.406 17.2057 268.211 17.3229 267.977 17.375C267.742 17.4271 267.469 17.4531 267.156 17.4531C266.948 17.4531 266.753 17.4271 266.57 17.375C266.414 17.3229 266.245 17.2708 266.062 17.2188C265.88 17.1667 265.711 17.0755 265.555 16.9453C265.815 16.6328 266.01 16.3333 266.141 16.0469C266.297 15.7604 266.375 15.4089 266.375 14.9922C266.375 14.6276 266.271 14.3021 266.062 14.0156C265.88 13.7292 265.568 13.5859 265.125 13.5859C264.656 13.5859 264.201 13.6771 263.758 13.8594C263.341 14.0417 262.964 14.2891 262.625 14.6016C262.312 14.9141 262.052 15.2786 261.844 15.6953C261.661 16.0859 261.57 16.5156 261.57 16.9844C261.57 17.6875 261.831 18.3516 262.352 18.9766C262.898 19.6016 263.745 20.1354 264.891 20.5781ZM277.625 20.5781C278.198 20.7865 278.745 20.9818 279.266 21.1641C279.786 21.3464 280.242 21.5677 280.633 21.8281C281.023 22.0885 281.336 22.401 281.57 22.7656C281.805 23.1042 281.922 23.5339 281.922 24.0547C281.922 24.6797 281.779 25.2656 281.492 25.8125C281.232 26.3594 280.841 26.8411 280.32 27.2578C279.799 27.6745 279.161 28 278.406 28.2344C277.677 28.4948 276.857 28.625 275.945 28.625C274.93 28.625 274.109 28.5208 273.484 28.3125C272.859 28.1302 272.378 27.9089 272.039 27.6484C271.701 27.388 271.479 27.1276 271.375 26.8672C271.271 26.6068 271.219 26.3984 271.219 26.2422C271.219 25.9297 271.284 25.5911 271.414 25.2266C271.544 24.8359 271.792 24.4193 272.156 23.9766C272.312 23.7943 272.482 23.625 272.664 23.4688C273.029 23.1562 273.393 22.9609 273.758 22.8828C273.706 23.4818 273.771 23.9766 273.953 24.3672C274.161 24.7318 274.422 25.0182 274.734 25.2266C275.073 25.4349 275.438 25.5781 275.828 25.6562C276.245 25.7344 276.635 25.7734 277 25.7734C277.365 25.7734 277.729 25.7214 278.094 25.6172C278.484 25.513 278.836 25.3828 279.148 25.2266C279.461 25.0443 279.708 24.849 279.891 24.6406C280.099 24.4062 280.203 24.1589 280.203 23.8984C280.203 23.612 280.086 23.3776 279.852 23.1953C279.617 23.013 279.318 22.8698 278.953 22.7656C278.615 22.6354 278.237 22.5443 277.82 22.4922C277.43 22.4141 277.052 22.3359 276.688 22.2578C276.323 22.1797 275.828 22.0755 275.203 21.9453C274.604 21.7891 274.005 21.5547 273.406 21.2422C272.833 20.9297 272.326 20.513 271.883 19.9922C271.466 19.4714 271.258 18.7812 271.258 17.9219C271.258 16.9323 271.505 16.0729 272 15.3438C272.521 14.5885 273.146 13.9635 273.875 13.4688C274.63 12.9479 275.424 12.5573 276.258 12.2969C277.091 12.0365 277.833 11.9062 278.484 11.9062C278.823 11.9062 279.188 11.9583 279.578 12.0625C279.969 12.1406 280.333 12.2969 280.672 12.5312C281.01 12.7396 281.284 13.026 281.492 13.3906C281.727 13.7552 281.844 14.224 281.844 14.7969C281.844 15.3698 281.792 15.8385 281.688 16.2031C281.609 16.5417 281.479 16.8151 281.297 17.0234C281.141 17.2057 280.945 17.3229 280.711 17.375C280.477 17.4271 280.203 17.4531 279.891 17.4531C279.682 17.4531 279.487 17.4271 279.305 17.375C279.148 17.3229 278.979 17.2708 278.797 17.2188C278.615 17.1667 278.445 17.0755 278.289 16.9453C278.549 16.6328 278.745 16.3333 278.875 16.0469C279.031 15.7604 279.109 15.4089 279.109 14.9922C279.109 14.6276 279.005 14.3021 278.797 14.0156C278.615 13.7292 278.302 13.5859 277.859 13.5859C277.391 13.5859 276.935 13.6771 276.492 13.8594C276.076 14.0417 275.698 14.2891 275.359 14.6016C275.047 14.9141 274.786 15.2786 274.578 15.6953C274.396 16.0859 274.305 16.5156 274.305 16.9844C274.305 17.6875 274.565 18.3516 275.086 18.9766C275.633 19.6016 276.479 20.1354 277.625 20.5781ZM294.969 21.2812C294.917 22.2969 294.734 23.2344 294.422 24.0938C294.135 24.9531 293.732 25.7083 293.211 26.3594C292.69 26.9844 292.065 27.4792 291.336 27.8438C290.633 28.2083 289.852 28.4036 288.992 28.4297C288.237 28.4557 287.521 28.2734 286.844 27.8828C286.193 27.4922 285.62 26.9453 285.125 26.2422C284.63 25.5391 284.253 24.7057 283.992 23.7422C283.758 22.7526 283.693 21.6849 283.797 20.5391C283.875 19.2109 284.122 18.0781 284.539 17.1406C284.956 16.1771 285.398 15.3828 285.867 14.7578C286.336 14.1328 286.766 13.6771 287.156 13.3906C287.573 13.0781 287.833 12.8958 287.938 12.8438C288.12 12.7656 288.289 12.7526 288.445 12.8047C288.602 12.8307 288.771 12.8698 288.953 12.9219C289.005 12.9479 289.057 13.013 289.109 13.1172C289.214 13.2995 289.279 13.638 289.305 14.1328C289.435 13.8464 289.604 13.612 289.812 13.4297C290.021 13.2474 290.229 13.1172 290.438 13.0391C290.698 12.9349 290.958 12.8698 291.219 12.8438C291.401 12.8177 291.714 12.9609 292.156 13.2734C292.625 13.5859 293.068 14.0807 293.484 14.7578C293.927 15.4349 294.305 16.3203 294.617 17.4141C294.93 18.4818 295.047 19.7708 294.969 21.2812ZM292.312 20.8125C292.339 20.1875 292.312 19.5625 292.234 18.9375C292.182 18.2865 292.078 17.7005 291.922 17.1797C291.792 16.6328 291.622 16.2031 291.414 15.8906C291.206 15.5521 290.997 15.3828 290.789 15.3828C290.555 15.4349 290.294 15.5521 290.008 15.7344C289.773 15.8906 289.513 16.138 289.227 16.4766C288.94 16.8151 288.667 17.2969 288.406 17.9219C288.38 17.8438 288.354 17.7005 288.328 17.4922C288.302 17.3099 288.276 17.0755 288.25 16.7891C288.25 16.4766 288.276 16.0599 288.328 15.5391C287.964 15.9818 287.677 16.5026 287.469 17.1016C287.286 17.7005 287.143 18.2734 287.039 18.8203C286.935 19.4714 286.857 20.1224 286.805 20.7734C286.779 21.4766 286.805 22.1667 286.883 22.8438C286.987 23.5208 287.143 24.1198 287.352 24.6406C287.586 25.1615 287.859 25.5781 288.172 25.8906C288.484 26.2031 288.862 26.3464 289.305 26.3203C289.747 26.2943 290.138 26.112 290.477 25.7734C290.815 25.4349 291.115 25.0052 291.375 24.4844C291.635 23.9635 291.844 23.3776 292 22.7266C292.156 22.0755 292.26 21.4375 292.312 20.8125ZM307.664 16.0078C307.664 16.3724 307.56 16.75 307.352 17.1406C307.169 17.5052 306.935 17.8568 306.648 18.1953C306.362 18.5339 306.036 18.8333 305.672 19.0938C305.333 19.3281 305.008 19.4714 304.695 19.5234C304.904 18.7161 304.969 18.0911 304.891 17.6484C304.812 17.2057 304.682 16.8802 304.5 16.6719C304.292 16.4375 304.031 16.3073 303.719 16.2812C303.25 16.2812 302.794 16.5547 302.352 17.1016C301.935 17.6224 301.57 18.2734 301.258 19.0547C300.945 19.8099 300.698 20.6302 300.516 21.5156C300.333 22.375 300.242 23.1562 300.242 23.8594C300.216 24.3542 300.229 24.8359 300.281 25.3047C300.307 25.6953 300.346 26.099 300.398 26.5156C300.477 26.9323 300.581 27.2578 300.711 27.4922C300.555 27.6224 300.294 27.7786 299.93 27.9609C299.591 28.1432 299.227 28.2604 298.836 28.3125C298.471 28.3646 298.133 28.2995 297.82 28.1172C297.534 27.9349 297.378 27.5443 297.352 26.9453C297.299 26.3724 297.26 25.7344 297.234 25.0312C297.234 24.3021 297.234 23.5859 297.234 22.8828C297.26 22.1536 297.286 21.4375 297.312 20.7344C297.339 20.0312 297.378 19.3802 297.43 18.7812C297.482 17.6354 297.508 16.75 297.508 16.125C297.508 15.5 297.495 14.901 297.469 14.3281C297.469 14.224 297.638 14.0807 297.977 13.8984C298.341 13.6901 298.732 13.5078 299.148 13.3516C299.591 13.1953 299.995 13.1042 300.359 13.0781C300.724 13.0521 300.906 13.1302 300.906 13.3125C300.906 13.599 300.867 14.1719 300.789 15.0312C300.737 15.8646 300.659 16.737 300.555 17.6484C300.737 17.1536 300.971 16.6198 301.258 16.0469C301.57 15.474 301.922 14.9401 302.312 14.4453C302.703 13.9505 303.146 13.5469 303.641 13.2344C304.135 12.8958 304.682 12.7266 305.281 12.7266C305.75 12.7266 306.128 12.8698 306.414 13.1562C306.727 13.4427 306.974 13.7682 307.156 14.1328C307.339 14.4974 307.469 14.862 307.547 15.2266C307.625 15.5911 307.664 15.8516 307.664 16.0078ZM315.086 20.5781C315.659 20.7865 316.206 20.9818 316.727 21.1641C317.247 21.3464 317.703 21.5677 318.094 21.8281C318.484 22.0885 318.797 22.401 319.031 22.7656C319.266 23.1042 319.383 23.5339 319.383 24.0547C319.383 24.6797 319.24 25.2656 318.953 25.8125C318.693 26.3594 318.302 26.8411 317.781 27.2578C317.26 27.6745 316.622 28 315.867 28.2344C315.138 28.4948 314.318 28.625 313.406 28.625C312.391 28.625 311.57 28.5208 310.945 28.3125C310.32 28.1302 309.839 27.9089 309.5 27.6484C309.161 27.388 308.94 27.1276 308.836 26.8672C308.732 26.6068 308.68 26.3984 308.68 26.2422C308.68 25.9297 308.745 25.5911 308.875 25.2266C309.005 24.8359 309.253 24.4193 309.617 23.9766C309.773 23.7943 309.943 23.625 310.125 23.4688C310.49 23.1562 310.854 22.9609 311.219 22.8828C311.167 23.4818 311.232 23.9766 311.414 24.3672C311.622 24.7318 311.883 25.0182 312.195 25.2266C312.534 25.4349 312.898 25.5781 313.289 25.6562C313.706 25.7344 314.096 25.7734 314.461 25.7734C314.826 25.7734 315.19 25.7214 315.555 25.6172C315.945 25.513 316.297 25.3828 316.609 25.2266C316.922 25.0443 317.169 24.849 317.352 24.6406C317.56 24.4062 317.664 24.1589 317.664 23.8984C317.664 23.612 317.547 23.3776 317.312 23.1953C317.078 23.013 316.779 22.8698 316.414 22.7656C316.076 22.6354 315.698 22.5443 315.281 22.4922C314.891 22.4141 314.513 22.3359 314.148 22.2578C313.784 22.1797 313.289 22.0755 312.664 21.9453C312.065 21.7891 311.466 21.5547 310.867 21.2422C310.294 20.9297 309.786 20.513 309.344 19.9922C308.927 19.4714 308.719 18.7812 308.719 17.9219C308.719 16.9323 308.966 16.0729 309.461 15.3438C309.982 14.5885 310.607 13.9635 311.336 13.4688C312.091 12.9479 312.885 12.5573 313.719 12.2969C314.552 12.0365 315.294 11.9062 315.945 11.9062C316.284 11.9062 316.648 11.9583 317.039 12.0625C317.43 12.1406 317.794 12.2969 318.133 12.5312C318.471 12.7396 318.745 13.026 318.953 13.3906C319.188 13.7552 319.305 14.224 319.305 14.7969C319.305 15.3698 319.253 15.8385 319.148 16.2031C319.07 16.5417 318.94 16.8151 318.758 17.0234C318.602 17.2057 318.406 17.3229 318.172 17.375C317.938 17.4271 317.664 17.4531 317.352 17.4531C317.143 17.4531 316.948 17.4271 316.766 17.375C316.609 17.3229 316.44 17.2708 316.258 17.2188C316.076 17.1667 315.906 17.0755 315.75 16.9453C316.01 16.6328 316.206 16.3333 316.336 16.0469C316.492 15.7604 316.57 15.4089 316.57 14.9922C316.57 14.6276 316.466 14.3021 316.258 14.0156C316.076 13.7292 315.763 13.5859 315.32 13.5859C314.852 13.5859 314.396 13.6771 313.953 13.8594C313.536 14.0417 313.159 14.2891 312.82 14.6016C312.508 14.9141 312.247 15.2786 312.039 15.6953C311.857 16.0859 311.766 16.5156 311.766 16.9844C311.766 17.6875 312.026 18.3516 312.547 18.9766C313.094 19.6016 313.94 20.1354 315.086 20.5781Z" fill="black"/>
</svg>
